<svg width="139" height="22" viewBox="0 0 139 22" fill="none" xmlns="http://www.w3.org/2000/svg">
<g filter="url(#filter0_i_1_50)">
<path d="M23.33 20.22V21H16.1V20.22L17.75 20.04C18.07 20 18.26 19.92 18.32 19.8C18.38 19.66 18.41 19.25 18.41 18.57V2.31L12.17 18.6H10.13L3.86 2.31V18.57C3.86 19.25 3.89 19.66 3.95 19.8C4.01 19.92 4.2 20 4.52 20.04L6.17 20.22V21H0.44V20.22L2.09 20.04C2.41 20 2.6 19.92 2.66 19.8C2.72 19.66 2.75 19.25 2.75 18.57V3.03C2.75 2.35 2.72 1.95 2.66 1.83C2.6 1.69 2.41 1.6 2.09 1.56L0.44 1.41V0.6H5.93L11.96 16.35L17.99 0.6H23.33V1.41L21.68 1.56C21.36 1.6 21.17 1.69 21.11 1.83C21.05 1.95 21.02 2.35 21.02 3.03V18.57C21.02 19.25 21.05 19.66 21.11 19.8C21.17 19.92 21.36 20 21.68 20.04L23.33 20.22ZM30.4505 20.22V21H24.7505V20.22L26.3705 20.04C26.5905 20.02 26.7505 19.99 26.8505 19.95C26.9505 19.89 27.0405 19.77 27.1205 19.59C27.2205 19.39 27.3405 19.05 27.4805 18.57L33.2705 0.6H35.1605L41.0105 18.57C41.1505 19.05 41.2605 19.39 41.3405 19.59C41.4405 19.77 41.5405 19.89 41.6405 19.95C41.7405 19.99 41.8905 20.02 42.0905 20.04L43.7405 20.22V21H36.4505V20.22L38.1005 20.04C38.4205 20 38.5905 19.92 38.6105 19.8C38.6505 19.66 38.5605 19.25 38.3405 18.57L37.1105 14.73H29.7905L28.5605 18.57C28.3405 19.25 28.2405 19.66 28.2605 19.8C28.3005 19.92 28.4805 20 28.8005 20.04L30.4505 20.22ZM30.0905 13.77H36.8105L33.4505 3.33L30.0905 13.77ZM57.6791 2.85L51.8591 21H49.8491L43.9991 2.85C43.8191 2.25 43.6791 1.9 43.5791 1.8C43.4991 1.68 43.2991 1.6 42.9791 1.56L41.4791 1.41V0.6H48.5291V1.41L46.9991 1.56C46.6791 1.6 46.4991 1.68 46.4591 1.8C46.4391 1.92 46.5191 2.27 46.6991 2.85L51.6491 18.39L56.5991 2.85C56.7991 2.27 56.8791 1.92 56.8391 1.8C56.8191 1.68 56.6391 1.6 56.2991 1.56L54.7691 1.41V0.6H60.1991V1.41L58.6691 1.56C58.4691 1.58 58.3191 1.62 58.2191 1.68C58.1391 1.72 58.0591 1.83 57.9791 2.01C57.9191 2.17 57.8191 2.45 57.6791 2.85ZM75.1726 16.11H75.9526V21H61.5826V20.22L63.2326 20.04C63.5526 20 63.7426 19.92 63.8026 19.8C63.8626 19.68 63.8926 19.27 63.8926 18.57V3.03C63.8926 2.33 63.8626 1.92 63.8026 1.8C63.7426 1.68 63.5526 1.6 63.2326 1.56L61.5826 1.41V0.6H75.5626V5.49H74.8126L73.9426 2.34C73.8826 2.1 73.8126 1.93 73.7326 1.83C73.6726 1.71 73.5426 1.64 73.3426 1.62C73.1426 1.58 72.8026 1.56 72.3226 1.56H66.5026V10.23H70.5226C71.0026 10.23 71.3426 10.22 71.5426 10.2C71.7426 10.16 71.8726 10.09 71.9326 9.99C72.0126 9.87 72.0826 9.69 72.1426 9.45L72.7126 7.2H73.4926V14.22H72.7126L72.1426 11.97C72.0826 11.73 72.0126 11.56 71.9326 11.46C71.8726 11.34 71.7426 11.27 71.5426 11.25C71.3426 11.21 71.0026 11.19 70.5226 11.19H66.5026V20.04H72.6826C73.1626 20.04 73.5026 20.03 73.7026 20.01C73.9026 19.97 74.0326 19.9 74.0926 19.8C74.1726 19.68 74.2426 19.5 74.3026 19.26L75.1726 16.11ZM78.9849 1.41V0.6H87.3249C89.2849 0.6 90.7849 1.07 91.8249 2.01C92.8849 2.93 93.4149 4.16 93.4149 5.7V6.63C93.4149 7.85 93.0749 8.89 92.3949 9.75C91.7349 10.59 90.7849 11.17 89.5449 11.49L93.3849 18.57C93.6449 19.05 93.8349 19.39 93.9549 19.59C94.0749 19.77 94.1849 19.89 94.2849 19.95C94.4049 19.99 94.5649 20.02 94.7649 20.04L96.1149 20.22V21H91.5849L86.8449 11.76H83.9049V18.57C83.9049 19.27 83.9349 19.68 83.9949 19.8C84.0549 19.92 84.2449 20 84.5649 20.04L86.2149 20.22V21H78.9849V20.22L80.6349 20.04C80.9549 20 81.1449 19.92 81.2049 19.8C81.2649 19.68 81.2949 19.27 81.2949 18.57V3.03C81.2949 2.33 81.2649 1.92 81.2049 1.8C81.1449 1.68 80.9549 1.6 80.6349 1.56L78.9849 1.41ZM87.3249 1.56H83.9049V10.8H87.3249C88.3649 10.8 89.1749 10.47 89.7549 9.81C90.3549 9.13 90.6549 8.11 90.6549 6.75V5.58C90.6549 4.22 90.3549 3.21 89.7549 2.55C89.1749 1.89 88.3649 1.56 87.3249 1.56ZM97.7349 1.41V0.6H104.965V1.41L103.315 1.56C102.995 1.6 102.805 1.68 102.745 1.8C102.685 1.92 102.655 2.33 102.655 3.03V18.57C102.655 19.27 102.685 19.68 102.745 19.8C102.805 19.92 102.995 20 103.315 20.04L104.965 20.22V21H97.7349V20.22L99.3849 20.04C99.7049 20 99.8949 19.92 99.9549 19.8C100.015 19.68 100.045 19.27 100.045 18.57V3.03C100.045 2.33 100.015 1.92 99.9549 1.8C99.8949 1.68 99.7049 1.6 99.3849 1.56L97.7349 1.41ZM116.422 21.3C113.882 21.3 111.942 20.45 110.602 18.75C109.282 17.05 108.622 14.77 108.622 11.91V9.66C108.622 7.78 108.902 6.14 109.462 4.74C110.042 3.34 110.892 2.25 112.012 1.47C113.132 0.689999 114.502 0.299998 116.122 0.299998C117.622 0.299998 118.862 0.599999 119.842 1.2C120.822 1.78 121.532 2.55 121.972 3.51C122.412 4.45 122.552 5.48 122.392 6.6L119.812 7.23C120.032 5.31 119.812 3.84 119.152 2.82C118.492 1.78 117.482 1.26 116.122 1.26C114.602 1.26 113.442 1.8 112.642 2.88C111.862 3.96 111.472 5.72 111.472 8.16V13.41C111.472 15.87 111.892 17.64 112.732 18.72C113.572 19.8 114.822 20.34 116.482 20.34C117.142 20.34 117.772 20.23 118.372 20.01C118.972 19.77 119.482 19.37 119.902 18.81C120.322 18.25 120.582 17.47 120.682 16.47L122.542 16.95C122.102 18.55 121.322 19.68 120.202 20.34C119.102 20.98 117.842 21.3 116.422 21.3ZM132.08 20.34C133.42 20.34 134.5 20.01 135.32 19.35C136.16 18.69 136.58 17.72 136.58 16.44C136.58 15.42 136.27 14.57 135.65 13.89C135.03 13.19 133.95 12.63 132.41 12.21L130.34 11.61C128.82 11.19 127.66 10.48 126.86 9.48C126.06 8.48 125.66 7.26 125.66 5.82C125.66 4.86 125.88 3.96 126.32 3.12C126.78 2.28 127.47 1.6 128.39 1.08C129.33 0.559999 130.52 0.299998 131.96 0.299998C133.56 0.299998 134.85 0.599999 135.83 1.2C136.81 1.78 137.49 2.54 137.87 3.48C138.25 4.42 138.34 5.43 138.14 6.51L135.62 7.05C135.88 5.19 135.69 3.76 135.05 2.76C134.43 1.76 133.35 1.26 131.81 1.26C130.59 1.26 129.63 1.59 128.93 2.25C128.23 2.89 127.88 3.83 127.88 5.07C127.88 6.05 128.16 6.89 128.72 7.59C129.28 8.27 130.27 8.81 131.69 9.21L133.76 9.81C137.1 10.73 138.77 12.68 138.77 15.66C138.77 16.72 138.52 17.68 138.02 18.54C137.54 19.38 136.8 20.05 135.8 20.55C134.82 21.05 133.58 21.3 132.08 21.3C131.04 21.3 130.04 21.14 129.08 20.82C128.14 20.5 127.33 19.95 126.65 19.17C125.99 18.39 125.55 17.31 125.33 15.93L127.13 15.33C127.23 16.65 127.52 17.67 128 18.39C128.48 19.11 129.08 19.62 129.8 19.92C130.52 20.2 131.28 20.34 132.08 20.34Z" fill="#9400FF"/>
</g>
<defs>
<filter id="filter0_i_1_50" x="0.440002" y="0.300049" width="138.33" height="25" filterUnits="userSpaceOnUse" color-interpolation-filters="sRGB">
<feFlood flood-opacity="0" result="BackgroundImageFix"/>
<feBlend mode="normal" in="SourceGraphic" in2="BackgroundImageFix" result="shape"/>
<feColorMatrix in="SourceAlpha" type="matrix" values="0 0 0 0 0 0 0 0 0 0 0 0 0 0 0 0 0 0 127 0" result="hardAlpha"/>
<feOffset dy="4"/>
<feGaussianBlur stdDeviation="2"/>
<feComposite in2="hardAlpha" operator="arithmetic" k2="-1" k3="1"/>
<feColorMatrix type="matrix" values="0 0 0 0 0.0862745 0 0 0 0 0.0509804 0 0 0 0 0.239216 0 0 0 0.9 0"/>
<feBlend mode="normal" in2="shape" result="effect1_innerShadow_1_50"/>
</filter>
</defs>
</svg>
